<svg width="700" height="700" viewBox="0 0 700 700" fill="none" xmlns="http://www.w3.org/2000/svg">
<g clip-path="url(#clip0_1_2)">
<rect width="700" height="700" rx="64" fill="#2C2C2C"/>
<path d="M259.4 557C253.4 557 250.4 554.8 250.4 550.4C250.4 546.8 253 544.4 258.2 543.2L272 540.8C280.4 539.2 285.8 537 288.2 534.2C291 531.4 292.4 525.8 292.4 517.4V164.6C292.4 156.2 291 150.6 288.2 147.8C285.8 145 280.4 142.8 272 141.2L258.2 138.8C253 137.6 250.4 135.2 250.4 131.6C250.4 127.2 253.4 125 259.4 125H369.2C375.2 125 378.2 127.4 378.2 132.2C378.2 135.8 376 138 371.6 138.8L355.4 141.2C347 142.4 341.4 144.6 338.6 147.8C336.2 151 335 156.8 335 165.2V501.2C335 515.6 339 526 347 532.4C355.4 538.8 365.8 542 378.2 542C387.4 542 396.8 540.2 406.4 536.6C416.4 532.6 425.4 525.4 433.4 515C441.4 504.2 447.4 488.6 451.4 468.2L459.2 428C460.4 422.8 463.4 420.2 468.2 420.2C473.8 420.2 476.2 423.6 475.4 430.4L468.2 543.2C467.4 552.4 462.4 557 453.2 557H259.4Z" fill="#5DE4C7"/>
</g>
<defs>
<clipPath id="clip0_1_2">
<rect width="700" height="700" rx="64" fill="white"/>
</clipPath>
</defs>
</svg>
